<svg xmlns="http://www.w3.org/2000/svg" xmlns:xlink="http://www.w3.org/1999/xlink" width="50" height="50" viewBox="0 0 50 50">
  <defs>
    <clipPath id="clip-path">
      <rect id="Rectangle_4624" data-name="Rectangle 4624" width="38.514" height="31.708" fill="#ee2d24" stroke="#e72c23" stroke-width="0.5"/>
    </clipPath>
    <clipPath id="clip-New">
      <rect width="50" height="50"/>
    </clipPath>
  </defs>
  <g id="New" clip-path="url(#clip-New)">
    <g id="Group_22166" data-name="Group 22166" transform="translate(-650.228 -437.001)">
      <g id="Group_22155" data-name="Group 22155" transform="translate(656.228 446)">
        <g id="Group_22154" data-name="Group 22154" transform="translate(0 0)" clip-path="url(#clip-path)">
          <path id="Path_12022" data-name="Path 12022" d="M31.835,12.4a.951.951,0,0,1-1.022.588c-.424-.015-.849.006-1.275-.006-.54-.017-.878-.333-.862-.783s.335-.709.878-.718c.425-.006.852.018,1.275-.006a.947.947,0,0,1,1.006.549Z" transform="translate(6.679 2.671)" fill="#ee2d24" stroke="#e72c23" stroke-width="0.5"/>
          <path id="Path_12023" data-name="Path 12023" d="M12.36,21.2c.266,1.1.522,2.154.778,3.208.324,1.338.655,2.673.973,4.012a2.458,2.458,0,0,1-1.748,3.109,5.531,5.531,0,0,1-2.936-.032,2.423,2.423,0,0,1-1.669-1.917c-.646-2.674-1.306-5.347-1.943-8.024a.535.535,0,0,0-.5-.467,6.031,6.031,0,0,1-5-4.377,5.991,5.991,0,0,1,1.652-6.34A6.085,6.085,0,0,1,6.416,8.6h7.03A19.863,19.863,0,0,0,23.579,5.993,14.014,14.014,0,0,0,28.3,1.6c.249-.375.489-.757.758-1.118A1.176,1.176,0,0,1,30.4.059,1.166,1.166,0,0,1,31.3,1.1a5.412,5.412,0,0,1,.039.6c0,2.982.006,5.965-.006,8.947,0,.286.095.385.361.439a3.809,3.809,0,0,1,2.961,4.156,3.717,3.717,0,0,1-3.049,3.487c-.3.072-.266.237-.266.433q0,4.531,0,9.061a1.407,1.407,0,0,1-.681,1.4,1.257,1.257,0,0,1-1.713-.436c-.524-.732-1-1.5-1.571-2.2a15.21,15.21,0,0,0-6.618-4.53,21.541,21.541,0,0,0-8.15-1.275c-.06,0-.122.007-.252.015M29.814,27.7V2.09c-3.839,5.526-9.332,7.686-15.747,8.045V19.65c6.412.367,11.9,2.513,15.747,8.052m-17.3-17.578c-.1-.007-.189-.018-.275-.018q-2.968,0-5.936,0a5.08,5.08,0,0,0-.709.062,4.77,4.77,0,0,0,.514,9.486c2.065.048,4.133.017,6.2.02a1.8,1.8,0,0,0,.2-.026V18c-1.457,0-2.884,0-4.311,0a2.546,2.546,0,0,1-.412-.017A.742.742,0,0,1,7.835,16.5c.2-.018.4-.007.6-.007,1.351,0,2.7,0,4.078,0Zm-.45,16.256c-.069-.3-.125-.551-.186-.805-.163-.668-.163-.668-.84-.71a1.584,1.584,0,0,1-.187-.021.725.725,0,0,1-.612-.7.718.718,0,0,1,.571-.734c.155-.035.316-.049.515-.08-.154-.635-.318-1.246-.446-1.867-.051-.244-.17-.286-.386-.285-.927.009-1.853,0-2.779,0-.132,0-.264.011-.422.017.023.139.035.237.057.33q.435,1.8.873,3.607.486,2,.975,4.007a1.114,1.114,0,0,0,1.274,1c.362,0,.726.009,1.089,0a1.036,1.036,0,0,0,1.087-1.393,2.594,2.594,0,0,1-.076-.329c-.035-.383-.191-.551-.62-.523a.742.742,0,0,1-.852-.705c-.027-.418.276-.722.779-.784.048-.006.095-.015.186-.03m19.3-9.158A2.253,2.253,0,0,0,33.17,14.8a2.2,2.2,0,0,0-1.807-2.225Z" transform="translate(0 -0.001)" fill="#ee2d24" stroke="#e72c23" stroke-width="0.5"/>
          <path id="Path_12024" data-name="Path 12024" d="M28.54,15.633a2.55,2.55,0,0,1,.5.292c.676.593,1.339,1.2,2,1.814a.754.754,0,1,1-1.009,1.106c-.681-.607-1.353-1.223-2.023-1.841a.753.753,0,0,1-.253-.875.81.81,0,0,1,.788-.5" transform="translate(6.451 3.64)" fill="#ee2d24" stroke="#e72c23" stroke-width="0.5"/>
          <path id="Path_12025" data-name="Path 12025" d="M28.541,9.168c-.681-.031-1.015-.618-.745-1.095a1.334,1.334,0,0,1,.265-.312Q29.025,6.874,30,5.995a.762.762,0,0,1,1.16-.043A.772.772,0,0,1,31.008,7.1c-.651.6-1.3,1.2-1.969,1.786a2.207,2.207,0,0,1-.5.277" transform="translate(6.452 1.328)" fill="#ee2d24" stroke="#e72c23" stroke-width="0.5"/>
          <path id="Path_12026" data-name="Path 12026" d="M4.753,14.112a.753.753,0,0,1-.721.764.77.77,0,0,1-.774-.757A.751.751,0,0,1,4,13.385a.731.731,0,0,1,.748.727" transform="translate(0.759 3.117)" fill="#ee2d24" stroke="#e72c23" stroke-width="0.5"/>
        </g>
      </g>
    </g>
  </g>
</svg>
