<svg xmlns="http://www.w3.org/2000/svg" xmlns:xlink="http://www.w3.org/1999/xlink" width="50" height="50" viewBox="0 0 50 50">
  <defs>
    <clipPath id="clip-seats">
      <rect width="50" height="50"/>
    </clipPath>
  </defs>
  <g id="seats" clip-path="url(#clip-seats)">
    <path id="seat" d="M3.752,27.925V22.341H33.51v11.17H27.925V27.926H9.338v5.585H3.752V27.926ZM31.678,13h5.585v5.585H31.678ZM0,13H5.585v5.585H0Zm27.925,5.585H9.338V3.752A3.622,3.622,0,0,1,10.429,1.09,3.517,3.517,0,0,1,13,0h11.17a3.622,3.622,0,0,1,2.662,1.091,3.617,3.617,0,0,1,1.09,2.661Z" transform="translate(6.5 8.501)" fill="none" stroke="#000" stroke-width="2"/>
  </g>
</svg>
