<svg xmlns="http://www.w3.org/2000/svg" xmlns:xlink="http://www.w3.org/1999/xlink" width="50" height="50" viewBox="0 0 50 50">
  <defs>
    <clipPath id="clip-trainer">
      <rect width="50" height="50"/>
    </clipPath>
  </defs>
  <g id="trainer" clip-path="url(#clip-trainer)">
    <g id="Group_22167" data-name="Group 22167" transform="translate(-842.684 -439)">
      <g id="Group_22153" data-name="Group 22153" transform="translate(848.683 445)">
        <path id="Path_11962" data-name="Path 11962" d="M-961.746-261.881c.419-.482.819-.913,1.184-1.372a1.639,1.639,0,0,1,1.789-.586c2.169.487,4.338.978,6.508,1.46a1.24,1.24,0,0,0,.495,0c1.9-.383,3.793-.777,5.689-1.166.706-.146,1.163.127,1.179.7a.76.76,0,0,1-.658.806q-3.093.645-6.189,1.267a1.646,1.646,0,0,1-.66-.016c-2.12-.47-4.239-.941-6.351-1.442a.722.722,0,0,0-.86.289c-.446.566-.936,1.1-1.413,1.637-.5.563-.936.558-1.444-.015s-1.025-1.158-1.525-1.749a.427.427,0,0,0-.539-.156c-.806.269-1.617.521-2.433.764a.38.38,0,0,0-.326.467c.136,2.119.245,4.239.368,6.358.07,1.189.156,2.38.221,3.569a.463.463,0,0,0,.375.479c.14.037.273.091.409.136a.8.8,0,0,1,.6.745c.068.954.136,1.908.2,2.862.135,2.08.264,4.158.4,6.237a.679.679,0,0,0,.706.7q2.261.019,4.523,0a.675.675,0,0,0,.7-.7c.161-2.406.31-4.812.475-7.217s.347-4.808.517-7.212q.141-1.978.264-3.96c.039-.6.3-.941.772-.959a.826.826,0,0,1,.839.96c-.076,1.191-.164,2.38-.248,3.569-.122,1.711-.247,3.423-.365,5.134q-.229,3.273-.448,6.547c-.065.981-.167,1.961-.175,2.943a2.4,2.4,0,0,1-2.536,2.487c-1.387-.062-2.779-.01-4.168-.015a2.273,2.273,0,0,1-2.417-2.287q-.261-4.1-.548-8.2a.454.454,0,0,0-.185-.337,2.067,2.067,0,0,1-1.291-2.1q-.251-4.375-.488-8.752c-.026-.47-.065-.941-.068-1.413a1.328,1.328,0,0,1,.96-1.377c1.126-.381,2.265-.732,3.4-1.092a1.268,1.268,0,0,1,1.41.443C-962.661-262.945-962.227-262.436-961.746-261.881Z" transform="translate(968.872 277.033)" fill="#ee2e24" stroke="#ee2e24" stroke-width="0.5"/>
        <path id="Path_11963" data-name="Path 11963" d="M-949.186-272.013h14.472c.117,0,.235,0,.354,0,.689.007.955.264.96.943,0,.368,0,.735,0,1.1v21.12c0,.921-.213,1.132-1.134,1.132H-956.2c-.131,0-.263.006-.393-.007a.774.774,0,0,1-.712-.795.745.745,0,0,1,.693-.762,5.183,5.183,0,0,1,.55-.015q10.242,0,20.487,0c.6,0,.6,0,.6-.586v-19.979c0-.579,0-.579-.568-.579q-14.1,0-28.194,0c-.17,0-.342.007-.511-.006a.777.777,0,0,1-.735-.775.787.787,0,0,1,.732-.782c.156-.013.315-.007.472-.007Z" transform="translate(971.295 272.015)" fill="#ee2e24" stroke="#ee2e24" stroke-width="0.5"/>
        <path id="Path_11964" data-name="Path 11964" d="M-962.832-261.324a4.271,4.271,0,0,1-4.283-4.258,4.292,4.292,0,0,1,4.273-4.278,4.279,4.279,0,0,1,4.255,4.25A4.255,4.255,0,0,1-962.832-261.324Zm-.013-1.554a2.705,2.705,0,0,0,2.695-2.707,2.716,2.716,0,0,0-2.693-2.673,2.7,2.7,0,0,0-2.708,2.691A2.69,2.69,0,0,0-962.845-262.878Z" transform="translate(969.965 273.356)" fill="#ee2e24" stroke="#ee2e24" stroke-width="0.5"/>
      </g>
    </g>
  </g>
</svg>
