<svg xmlns="http://www.w3.org/2000/svg" xmlns:xlink="http://www.w3.org/1999/xlink" width="50" height="50" viewBox="0 0 50 50">
  <defs>
    <clipPath id="clip-users">
      <rect width="50" height="50"/>
    </clipPath>
  </defs>
  <g id="users" clip-path="url(#clip-users)">
    <path id="users-2" data-name="users" d="M11.913,18a6.927,6.927,0,0,0-5.324,2.571H3.9a4.606,4.606,0,0,1-2.772-.813A2.752,2.752,0,0,1,0,17.377q0-7.092,2.491-7.092a3.852,3.852,0,0,1,.874.422,13.243,13.243,0,0,0,1.959.854,7.046,7.046,0,0,0,2.39.432,8.079,8.079,0,0,0,2.672-.462,10,10,0,0,0-.1,1.326A8.845,8.845,0,0,0,11.913,18ZM33.429,30.8A5.005,5.005,0,0,1,31.962,34.6a5.418,5.418,0,0,1-3.9,1.4H10.506a5.416,5.416,0,0,1-3.9-1.4A5.011,5.011,0,0,1,5.143,30.8q0-1.065.071-2.08a20.519,20.519,0,0,1,.282-2.19,17.141,17.141,0,0,1,.531-2.179A10.263,10.263,0,0,1,6.89,22.39a7.1,7.1,0,0,1,1.245-1.628,5.224,5.224,0,0,1,1.717-1.075,6.04,6.04,0,0,1,2.24-.4,2.36,2.36,0,0,1,.864.432q.662.432,1.467.964a8.825,8.825,0,0,0,2.149.964,9.325,9.325,0,0,0,7.573-.964q.8-.533,1.467-.964a2.36,2.36,0,0,1,.864-.432,6.035,6.035,0,0,1,2.24.4,5.238,5.238,0,0,1,1.717,1.075,7.056,7.056,0,0,1,1.245,1.628,10.353,10.353,0,0,1,.864,1.959,17.018,17.018,0,0,1,.532,2.179,20.519,20.519,0,0,1,.282,2.19q.071,1.015.071,2.08ZM12.857,5.143a4.957,4.957,0,0,1-1.506,3.636,4.95,4.95,0,0,1-3.636,1.506A4.961,4.961,0,0,1,4.078,8.779,4.953,4.953,0,0,1,2.571,5.143,4.953,4.953,0,0,1,4.078,1.506,4.961,4.961,0,0,1,7.714,0a4.95,4.95,0,0,1,3.636,1.506A4.957,4.957,0,0,1,12.857,5.143ZM27,12.857a7.435,7.435,0,0,1-2.26,5.455,7.427,7.427,0,0,1-5.455,2.26,7.438,7.438,0,0,1-5.455-2.26,7.43,7.43,0,0,1-2.26-5.455A7.43,7.43,0,0,1,13.831,7.4a7.438,7.438,0,0,1,5.455-2.26A7.427,7.427,0,0,1,24.74,7.4,7.435,7.435,0,0,1,27,12.857Zm11.571,4.52a2.754,2.754,0,0,1-1.125,2.381,4.6,4.6,0,0,1-2.772.813H31.983A6.927,6.927,0,0,0,26.659,18a8.845,8.845,0,0,0,1.627-5.143,10,10,0,0,0-.1-1.326,8.079,8.079,0,0,0,2.672.462,7.053,7.053,0,0,0,2.39-.432,13.176,13.176,0,0,0,1.959-.854,3.821,3.821,0,0,1,.874-.422q2.491,0,2.491,7.092ZM36,5.143a4.957,4.957,0,0,1-1.506,3.636,5.142,5.142,0,0,1-7.273,0,4.953,4.953,0,0,1-1.506-3.636,4.953,4.953,0,0,1,1.506-3.636,5.142,5.142,0,0,1,7.273,0A4.957,4.957,0,0,1,36,5.143Z" transform="translate(5.5 7.5)" fill="none" stroke="#000" stroke-width="2"/>
  </g>
</svg>
