<svg xmlns="http://www.w3.org/2000/svg" xmlns:xlink="http://www.w3.org/1999/xlink" width="50" height="50" viewBox="0 0 50 50">
  <defs>
    <clipPath id="clip-Explore_Hive">
      <rect width="50" height="50"/>
    </clipPath>
  </defs>
  <g id="Explore_Hive" data-name="Explore Hive" clip-path="url(#clip-Explore_Hive)">
    <g id="help-outline" transform="translate(3.75 1.096)">
      <path id="Path_11998" data-name="Path 11998" d="M11.25,14.23a9.257,9.257,0,0,1,3.489-6.187,10.211,10.211,0,0,1,6.5-2.137,11.3,11.3,0,0,1,4.732.814c1.78.872,5.256,2.995,5.256,7.51,0,4.751-3.036,6.906-6.487,9.278s-4.333,4.7-4.333,7.369" transform="translate(0 0)" fill="none" stroke="#000" stroke-linecap="round" stroke-miterlimit="10" stroke-width="6"/>
      <path id="Path_11999" data-name="Path 11999" d="M21.847,29.2a3.329,3.329,0,1,1-3.329-3.329A3.329,3.329,0,0,1,21.847,29.2Z" transform="translate(1.889 9.58)"/>
    </g>
  </g>
</svg>
