<svg xmlns="http://www.w3.org/2000/svg" xmlns:xlink="http://www.w3.org/1999/xlink" width="50" height="50" viewBox="0 0 50 50">
  <defs>
    <clipPath id="clip-path">
      <rect id="Rectangle_4740" data-name="Rectangle 4740" width="31.438" height="40.051" fill="none"/>
    </clipPath>
    <clipPath id="clip-FAA_Helpdesk">
      <rect width="50" height="50"/>
    </clipPath>
  </defs>
  <g id="FAA_Helpdesk" data-name="FAA Helpdesk" clip-path="url(#clip-FAA_Helpdesk)">
    <g id="Group_22406" data-name="Group 22406" transform="translate(9 4.999)">
      <g id="Group_22405" data-name="Group 22405" transform="translate(0 0)" clip-path="url(#clip-path)">
        <path id="Path_12055" data-name="Path 12055" d="M15.544,52.618H7.491a2.533,2.533,0,0,1-.475-.024.555.555,0,0,1-.437-.584.5.5,0,0,1,.521-.456c.3-.009.594,0,.891,0,.182,0,.308-.054.306-.272s-.135-.243-.3-.249-.3,0-.445,0a.6.6,0,0,1-.67-.67c-.012-.9,0-1.8-.006-2.7-.008-.793.118-.641-.668-.9C4.583,46.2,2.95,45.675,1.319,45.139A1.837,1.837,0,0,1,.192,42.552q1.994-4.246,3.992-8.492a1.9,1.9,0,0,1,1.781-1.177c1.8-.022,3.607-.01,5.411-.013a1.029,1.029,0,0,1,.957.663,3.8,3.8,0,0,0,6.045.982,4.646,4.646,0,0,0,.744-1.023,1.058,1.058,0,0,1,.985-.623c1.751,0,3.5,0,5.252,0a2,2,0,0,1,1.932,1.253q1.976,4.22,3.96,8.436a1.853,1.853,0,0,1-1.171,2.595c-1.735.559-3.462,1.142-5.2,1.7a.4.4,0,0,0-.33.452c.012.965.009,1.931,0,2.9,0,.634-.183.809-.816.815a3.488,3.488,0,0,0-.6.012.438.438,0,0,0-.3.226c-.057.2.1.278.284.282.275.006.552,0,.827.008.382.008.586.19.588.519a.551.551,0,0,1-.591.539c-.71.01-1.421.007-2.132.007H15.544m.048-1.595q-2.878,0-5.756,0c-.177,0-.381-.017-.382.259s.19.264.376.264q5.708,0,11.417,0c.185,0,.411.033.416-.259s-.227-.246-.41-.263c-.032,0-.064,0-.1,0H15.593" transform="translate(0 -12.566)"/>
        <path id="Path_12056" data-name="Path 12056" d="M27.567,10.049c-.128.922-.216,1.852-.4,2.762a1.46,1.46,0,0,0,.466,1.464,1.2,1.2,0,0,1,.433,1.375,1.3,1.3,0,0,0,.07.739.853.853,0,0,1-.967,1.2c-.565-.087-1.13-.182-1.691-.295a.388.388,0,0,0-.431.166A5.949,5.949,0,0,1,22.889,19.2a4.532,4.532,0,0,1-5.086-.831,8.691,8.691,0,0,1-.867-.885.508.508,0,0,0-.533-.178c-.551.107-1.1.206-1.66.283a.854.854,0,0,1-.93-1.186,1.853,1.853,0,0,0,.044-.893,1.051,1.051,0,0,1,.327-1.116,1.7,1.7,0,0,0,.561-1.767,9.863,9.863,0,0,1,.132-5.435A6.509,6.509,0,0,1,17.9,3.3a6.664,6.664,0,0,1,7.678,1.162,2.507,2.507,0,0,1,.452.612c.366.74.737,1.481,1.046,2.246a6.774,6.774,0,0,1,.414,2.719l.082.011m-8.8,7.464a1.772,1.772,0,0,0,.179.2,3.235,3.235,0,0,0,3.127.5,5.016,5.016,0,0,0,2.322-1.912,10.756,10.756,0,0,0,1.833-5.158c.045-.392-.044-.561-.423-.652a1.193,1.193,0,0,0-.618.02,3.9,3.9,0,0,1-2.32.043A8.649,8.649,0,0,1,18.73,7.881a.989.989,0,0,0-1.042-.375c-.4.1-.8.214-1.191.344A.813.813,0,0,0,15.9,8.5a10.97,10.97,0,0,0-.205,1.764,10.914,10.914,0,0,0,1.549,5.572c.331.552.511.633,1.146.544.255-.036.43-.088.491-.415a1.018,1.018,0,0,1,1.224-.8,1.036,1.036,0,0,1,.88,1.079,1.084,1.084,0,0,1-.969,1.044c-.393.047-.78.137-1.258.222" transform="translate(-5.259 -0.985)"/>
        <path id="Path_12057" data-name="Path 12057" d="M19.937,0a10.958,10.958,0,0,1,6.479,1.842,5.022,5.022,0,0,1,2.192,3.231,3.478,3.478,0,0,1,.049.76.56.56,0,0,1-.565.536.554.554,0,0,1-.605-.488c-.142-2.1-1.552-3.163-3.276-3.87a10.361,10.361,0,0,0-7.939-.017A5.59,5.59,0,0,0,13.5,4.139a3.337,3.337,0,0,0-.511,1.684.552.552,0,0,1-.434.527.531.531,0,0,1-.64-.233.955.955,0,0,1-.111-.482,4.438,4.438,0,0,1,1.5-3.163A8.868,8.868,0,0,1,18.179.2c.678-.111,1.367-.154,1.759-.2" transform="translate(-4.512 0)"/>
        <path id="Path_12058" data-name="Path 12058" d="M36.689,14.037c0-.658-.028-1.317.013-1.972a1.573,1.573,0,0,1,.29-.812.9.9,0,0,1,1.551.272c.1.224.188.326.452.323a.978.978,0,0,1,.991.963c.023.827.024,1.655,0,2.481a1,1,0,0,1-1.035.962c-.166.007-.288.011-.366.209a.937.937,0,0,1-1.075.686,1.048,1.048,0,0,1-.812-1.046c-.014-.689,0-1.379,0-2.068Z" transform="translate(-14.023 -4.174)"/>
        <path id="Path_12059" data-name="Path 12059" d="M12.154,14.074c0,.668.01,1.337,0,2a1.048,1.048,0,0,1-.846,1.08A.928.928,0,0,1,10.27,16.5a.326.326,0,0,0-.344-.242A1.025,1.025,0,0,1,8.85,15.171q-.015-1.129,0-2.259a1.019,1.019,0,0,1,1.062-1.066.317.317,0,0,0,.352-.229.925.925,0,0,1,1.053-.672,1.025,1.025,0,0,1,.829,1.028c.019.7,0,1.4,0,2.1h0" transform="translate(-3.38 -4.18)"/>
      </g>
    </g>
  </g>
</svg>
