<svg xmlns="http://www.w3.org/2000/svg" xmlns:xlink="http://www.w3.org/1999/xlink" width="50" height="50" viewBox="0 0 50 50">
  <defs>
    <clipPath id="clip-Date">
      <rect width="50" height="50"/>
    </clipPath>
  </defs>
  <g id="Date" clip-path="url(#clip-Date)">
    <path id="calendar" d="M2.585,33.606H8.4V27.789H2.585Zm7.108,0h6.463V27.789H9.694v5.817ZM2.585,26.5H8.4V20.034H2.585Zm7.108,0h6.463V20.034H9.694V26.5ZM2.585,18.742H8.4V12.925H2.585ZM17.449,33.606h6.463V27.789H17.449ZM9.694,18.742h6.463V12.925H9.694ZM25.2,33.606h5.817V27.789H25.2ZM17.45,26.5h6.463V20.034H17.449V26.5ZM10.34,9.048V3.231a.656.656,0,0,0-.646-.646H8.4a.656.656,0,0,0-.646.646V9.048a.656.656,0,0,0,.646.646H9.694a.656.656,0,0,0,.646-.646ZM25.2,26.5h5.817V20.034H25.2V26.5Zm-7.756-7.755h6.463V12.925H17.449Zm7.755,0H31.02V12.925H25.2Zm.646-9.694V3.231a.656.656,0,0,0-.646-.646H23.911a.654.654,0,0,0-.645.646V9.048a.656.656,0,0,0,.646.646H25.2a.656.656,0,0,0,.646-.646ZM33.6,7.755V33.6a2.62,2.62,0,0,1-2.585,2.585H2.585a2.484,2.484,0,0,1-1.818-.767A2.484,2.484,0,0,1,0,33.6V7.755A2.484,2.484,0,0,1,.767,5.937,2.484,2.484,0,0,1,2.585,5.17H5.169V3.231A3.111,3.111,0,0,1,6.118.949,3.112,3.112,0,0,1,8.4,0H9.694a3.111,3.111,0,0,1,2.282.949,3.111,3.111,0,0,1,.949,2.282V5.17H20.68V3.231A3.111,3.111,0,0,1,21.629.949,3.111,3.111,0,0,1,23.911,0H25.2a3.111,3.111,0,0,1,2.282.949,3.111,3.111,0,0,1,.949,2.282V5.17h2.585a2.484,2.484,0,0,1,1.818.767A2.484,2.484,0,0,1,33.6,7.755Z" transform="translate(8 6.999)" fill="#ed2d23"/>
  </g>
</svg>
