<svg xmlns="http://www.w3.org/2000/svg" xmlns:xlink="http://www.w3.org/1999/xlink" width="50" height="50" viewBox="0 0 50 50">
  <defs>
    <clipPath id="clip-grade">
      <rect width="50" height="50"/>
    </clipPath>
  </defs>
  <g id="grade" clip-path="url(#clip-grade)">
    <g id="Group_1080" data-name="Group 1080" transform="translate(9 6)">
      <path id="Path_628" data-name="Path 628" d="M-311.645,233.9a1.468,1.468,0,0,1-.846-1.53q.022-17.952.01-35.9c0-1.044.4-1.44,1.443-1.44q10.325,0,20.651-.008a1.762,1.762,0,0,1,1.344.559q3.57,3.594,7.166,7.164a1.723,1.723,0,0,1,.539,1.315q-.014,14.156,0,28.314a1.468,1.468,0,0,1-.846,1.53Zm1.469-36.581v34.274h26.522V204.9h-6.256a1.167,1.167,0,0,1-1.306-1.312q0-2.92,0-5.844v-.42Zm21.252,5.27h3.505l-3.505-3.5Z" transform="translate(312.491 -195.017)"/>
      <path id="Path_629" data-name="Path 629" d="M-303.831,212.063c-.771,0-1.544.01-2.315,0a.379.379,0,0,0-.433.3c-.192.561-.411,1.114-.63,1.666a1.145,1.145,0,0,1-1.509.756,1.145,1.145,0,0,1-.614-1.573q2.093-5.505,4.2-11.01a1.4,1.4,0,0,1,1.33-1,1.4,1.4,0,0,1,1.357,1.017q2.079,5.493,4.151,10.988a1.158,1.158,0,0,1-.607,1.581,1.151,1.151,0,0,1-1.523-.788c-.209-.543-.422-1.084-.614-1.632a.386.386,0,0,0-.435-.307C-302.262,212.074-303.046,212.063-303.831,212.063Zm.034-6.985-1.787,4.693h3.555Z" transform="translate(314.321 -191.318)"/>
      <path id="Path_630" data-name="Path 630" d="M-297.29,212.123q2.2,0,4.4,0a1.158,1.158,0,0,1,1.3,1.125A1.161,1.161,0,0,1-292.9,214.4q-4.419,0-8.836,0a1.143,1.143,0,0,1-1.161-1.55,1.152,1.152,0,0,1,1.136-.726C-300.273,212.119-298.782,212.123-297.29,212.123Z" transform="translate(318.181 -184.781)"/>
      <path id="Path_631" data-name="Path 631" d="M-297.33,217.25q-2.18,0-4.361,0a1.158,1.158,0,0,1-1.292-1.132,1.154,1.154,0,0,1,1.279-1.144q4.419,0,8.836,0a1.154,1.154,0,0,1,1.272,1.151,1.152,1.152,0,0,1-1.261,1.125Q-295.093,217.253-297.33,217.25Z" transform="translate(318.182 -183.075)"/>
      <path id="Path_632" data-name="Path 632" d="M-298.332,203.793c1.4.066,1.886.366,1.9,1.137s-.472,1.082-1.9,1.175c0,.229,0,.464,0,.7a1.145,1.145,0,0,1-1.132,1.178,1.143,1.143,0,0,1-1.143-1.168c-.006-.225,0-.451,0-.727-.257,0-.492,0-.727,0a1.146,1.146,0,0,1-1.17-1.143,1.147,1.147,0,0,1,1.178-1.133c.225,0,.451,0,.719,0,0-.264,0-.5,0-.737a1.143,1.143,0,0,1,1.151-1.16,1.145,1.145,0,0,1,1.124,1.149C-298.325,203.306-298.332,203.553-298.332,203.793Z" transform="translate(318.466 -190.892)"/>
    </g>
  </g>
</svg>
